<svg width="144" height="24" viewBox="0 0 144 24" fill="none" xmlns="http://www.w3.org/2000/svg">
<g clip-path="url(#clip0_12_2052)">
<path d="M0.498651 0.617925L8.1337 0.594438C14.6992 0.570951 18.8618 2.61612 18.8618 6.65948C18.8618 10.7028 14.7462 12.701 8.1337 12.701H7.15809V15.4598C7.15809 15.8645 7.39657 16.2692 7.77598 16.5059C7.91871 16.5782 8.03795 16.6721 8.18068 16.7679C8.58537 17.0533 8.37038 17.7905 7.87173 17.7905H0.522138C0.0234932 17.7905 -0.191502 17.0533 0.213195 16.7679C0.332436 16.6721 0.522138 16.5782 0.688353 16.4824C1.04427 16.3162 1.28275 15.935 1.32973 15.5556V2.95036C1.32973 2.52217 1.06776 2.11747 0.688353 1.90428C0.498651 1.80853 0.332436 1.71458 0.213195 1.64232C-0.191502 1.35505 0.0234931 0.617925 0.498651 0.617925ZM7.15809 10.5601C7.15809 10.9883 7.44355 11.2738 7.87173 11.2738C11.3912 11.2738 13.0334 9.82298 13.0334 6.68297C13.0334 3.54295 11.4399 2.04521 7.87173 2.02172C7.44355 2.02172 7.15809 2.33066 7.15809 2.75885V10.5601Z" fill="#D81D45"/>
<path d="M20.0018 7.34956C21.0713 6.73168 22.6413 6.35047 24.0217 6.35047C25.402 6.35047 26.3758 6.54017 26.495 8.20593C26.9955 7.32608 27.8988 6.51668 29.3965 6.32698C32.6793 5.92228 34.8202 7.58805 34.7949 9.53746C34.7714 10.869 33.7958 11.9403 31.7741 11.7488C28.4914 11.4399 30.99 7.70548 29.0388 7.77594C27.4688 7.8464 27.0171 10.2023 27.0171 11.5338V15.458C27.0171 15.8627 27.2791 16.2674 27.635 16.504C27.7778 16.5763 27.897 16.6703 28.0397 16.766C28.4679 17.0515 28.2294 17.7886 27.7308 17.7886H20.9286C20.4534 17.7886 20.215 17.0515 20.6197 16.766C20.7624 16.6703 20.9286 16.5763 21.0948 16.4805C21.4995 16.2908 21.7362 15.8861 21.7362 15.458V8.8726C21.7362 8.49139 21.4977 8.39744 21.1653 8.39744C20.8563 8.39744 20.4751 8.4679 20.1662 8.4679C19.6422 8.42093 19.4995 7.61153 20 7.34956H20.0018Z" fill="#D81D45"/>
<path d="M42.2638 6.3269C46.2367 6.3269 48.8293 8.20586 48.8293 12.2257C48.8293 16.2456 46.2367 18.1246 42.2638 18.1246C38.2909 18.1246 35.7236 16.0559 35.7236 12.2257C35.7236 8.39556 38.3162 6.3269 42.2638 6.3269ZM41.0262 12.4389C41.5971 15.9114 41.953 16.9574 43.0244 16.7677C44.0939 16.578 44.0939 15.4832 43.523 12.0107C42.9286 8.53829 42.5962 7.5157 41.5014 7.7054C40.4318 7.89511 40.4318 8.96647 41.0262 12.4389Z" fill="#D81D45"/>
<path d="M49.635 11.346C49.635 8.08673 52.4661 6.32702 56.7715 6.32702C59.2936 6.04157 60.6016 5.01898 61.6712 3.80489C61.8844 3.54292 62.1229 3.44897 62.3613 3.44897C63.3369 3.44897 64.1933 5.25747 63.5032 6.35051C63.0515 7.06415 61.6965 6.92142 60.6251 6.89794C62.6938 7.63506 63.9079 9.08583 63.9079 11.346C63.9079 14.748 61.0768 16.3415 56.7715 16.3415C56.3433 16.3415 55.9386 16.318 55.5592 16.2945C54.6558 16.4842 53.7507 17.0081 54.0361 17.626C54.1319 17.841 54.4173 17.9115 54.8202 17.9115C56.0325 17.9115 58.4354 17.1744 60.5041 17.1744C62.121 17.1744 63.5483 17.626 64 19.243C64.6414 21.4309 63.1436 24 58.5763 24C57.4815 24 57.3153 22.9774 58.0054 22.9539C59.3369 22.907 61.953 22.6215 61.5736 21.4309C61.4779 21.1455 61.2159 21.0497 60.8365 21.0497C59.4815 21.0497 56.5547 22.3343 53.3677 22.2873C51.3225 22.2403 49.9657 21.0985 49.9187 19.3135C49.8952 17.72 50.9413 16.4824 53.1292 15.8175C50.9413 15.0569 49.6332 13.5574 49.6332 11.346H49.635ZM55.3911 11.5122C56.0325 14.4625 56.4137 15.3424 57.6025 15.1997C58.7678 15.0334 58.7678 14.1048 58.1265 11.1563C57.4851 8.20778 57.1039 7.35141 55.9386 7.49414C54.7733 7.66036 54.7733 8.5637 55.3911 11.514V11.5122Z" fill="#D81D45"/>
<path d="M64.9287 7.34956C65.9982 6.73168 67.5682 6.35047 68.9485 6.35047C70.3288 6.35047 71.3026 6.54017 71.4219 8.20593C71.9205 7.32608 72.8257 6.51668 74.3234 6.32698C77.6062 5.92228 79.7471 7.58805 79.7218 9.53746C79.6983 10.869 78.7227 11.9403 76.701 11.7488C73.4183 11.4399 75.9169 7.70548 73.9657 7.77594C72.3957 7.8464 71.944 10.2023 71.944 11.5338V15.458C71.944 15.8627 72.206 16.2674 72.5619 16.504C72.7046 16.5763 72.8239 16.6703 72.9666 16.766C73.3948 17.0515 73.1563 17.7886 72.6577 17.7886H65.8555C65.3803 17.7886 65.1418 17.0515 65.5465 16.766C65.6893 16.6703 65.8555 16.5763 66.0217 16.4805C66.4264 16.2908 66.6631 15.8861 66.6631 15.458V8.8726C66.6631 8.49139 66.4246 8.39744 66.0922 8.39744C65.7832 8.39744 65.402 8.4679 65.0931 8.4679C64.5691 8.42093 64.4264 7.61153 64.9269 7.34956H64.9287Z" fill="#D81D45"/>
<path d="M86.2403 10.7986C87.0967 10.7986 87.8338 10.8943 88.262 11.037V10.2276C88.262 8.41916 87.9061 7.56279 86.8582 7.5393C85.6459 7.51581 85.4779 8.25294 85.2177 9.17977C85.0515 9.79766 84.2186 10.1319 83.3857 10.1319C82.3867 10.1319 81.3641 9.68022 81.4345 8.77688C81.5303 7.32611 83.7652 6.32702 87.1437 6.3505C90.8058 6.3505 93.6838 7.65854 93.6838 11.084C93.6604 12.7245 93.6604 14.318 93.6604 15.2701C93.6604 16.0072 93.8031 16.4354 94.2078 16.4824C94.589 16.5294 94.8492 16.1012 95.1599 16.1734C95.7308 16.3162 95.3731 18.1482 91.7579 18.0994C89.9982 18.0759 88.5474 17.3857 88.2855 15.9819C87.5484 17.3857 85.8826 18.1229 84.1698 18.1229C82.0054 18.1229 80.365 17.0045 80.1735 15.2213C79.841 11.7254 83.6224 10.7968 86.2385 10.7968L86.2403 10.7986ZM86.907 15.8645C88.0018 15.841 88.215 14.7949 88.2385 13.5574L88.262 12.2493C88.0958 12.1771 87.6441 12.0343 87.1671 12.0343C86.43 12.0343 85.5736 12.3668 85.4309 13.8428C85.3352 15.0081 85.8591 15.9115 86.9052 15.8645H86.907Z" fill="#D81D45"/>
<path d="M96.1806 7.34968C97.2502 6.7318 98.7967 6.35059 100.177 6.35059C100.938 6.35059 102.009 6.39756 102.414 7.18347C103.223 6.75528 104.15 6.46983 105.173 6.37407C108.86 6.1121 111.31 8.49151 111.31 12.2259C111.31 15.9603 108.67 18.3632 105.292 18.1248C104.65 18.0778 103.96 17.8628 103.27 17.5538V20.8836C103.27 21.2883 103.532 21.693 103.888 21.9296C104.031 22.0019 104.15 22.0958 104.293 22.1916C104.721 22.4771 104.482 23.2142 103.984 23.2142H97.1093C96.6341 23.2142 96.3956 22.4771 96.8003 22.1916C96.9431 22.0958 97.1093 22.0019 97.2755 21.9061C97.6802 21.7164 97.9169 21.2883 97.9169 20.8601V8.87272C97.9169 8.49151 97.6784 8.39756 97.3459 8.39756C97.037 8.39756 96.6558 8.46802 96.3469 8.46802C95.8229 8.42105 95.6802 7.61165 96.1806 7.34968ZM103.268 12.4391C103.767 15.8646 104.195 16.9576 105.266 16.7679C106.361 16.5782 106.408 15.4834 105.765 12.0109C105.171 8.87091 104.862 7.72909 103.767 7.92059C102.697 8.08681 102.791 9.27561 103.268 12.4391Z" fill="#D81D45"/>
<path d="M111.76 0.999097C112.806 0.381211 114.661 0 116.208 0C118.11 0 118.847 0.261969 118.847 2.40289V8.63415C119.727 7.27913 121.25 6.37398 122.963 6.32701C125.984 6.28004 127.196 7.37308 127.196 9.98916V15.2213H127.22V15.4598C127.22 15.8645 127.458 16.2692 127.837 16.5059C127.957 16.5781 128.099 16.6721 128.242 16.7678C128.647 17.0533 128.408 17.7904 127.933 17.7904H124.009C122.249 17.7904 121.892 16.6486 121.845 15.4363L121.868 11.5827C121.868 10.2981 121.987 8.77507 120.869 8.80036C119.751 8.82565 118.894 10.4173 118.847 11.6784V15.4598C118.847 15.8645 119.109 16.2692 119.465 16.5059C119.608 16.5781 119.727 16.6721 119.87 16.7678C120.298 17.0533 120.06 17.7904 119.561 17.7904H112.687C112.211 17.7904 111.973 17.0533 112.378 16.7678C112.52 16.6721 112.687 16.5781 112.853 16.4824C113.257 16.2927 113.494 15.888 113.494 15.4598V2.52213C113.494 2.14092 113.256 2.04697 112.923 2.04697C112.614 2.04697 112.233 2.11924 111.924 2.11924C111.4 2.07227 111.257 1.26287 111.758 1.0009L111.76 0.999097Z" fill="#D81D45"/>
<path d="M128.86 6.65952H136.21C136.685 6.65952 136.9 7.39665 136.519 7.65862C136.399 7.75437 136.28 7.82483 136.137 7.92059C135.805 8.13378 135.662 8.46801 135.756 8.82393C136.779 11.2268 137.897 13.7706 138.206 15.0787L140.728 9.22682H140.705L140.847 8.91788C140.99 8.53667 140.871 8.15726 140.491 7.91878C140.349 7.82303 140.229 7.75257 140.11 7.65681C139.706 7.39484 139.921 6.65771 140.419 6.65771H143.463C143.962 6.65771 144.201 7.39484 143.796 7.65681C143.63 7.77605 143.487 7.87 143.344 7.94227C142.988 8.15546 142.654 8.48969 142.488 8.82212L138.397 18.0976C136.9 21.5231 135.995 23.2828 132.784 23.3298C129.953 23.3768 128.123 21.6893 128.575 19.6911C128.788 18.7155 129.693 18.2873 130.596 18.2873C131.691 18.2873 132.808 18.9052 132.714 19.8808C132.594 21.2611 133.427 21.9983 133.902 21.9495C133.973 21.9495 134.069 21.926 134.141 21.9025C136.116 21.1419 132.381 13.9097 129.931 8.74986C129.718 8.41743 129.407 8.13197 129.098 7.96575C128.883 7.87 128.694 7.77605 128.528 7.65681C128.123 7.39484 128.361 6.65771 128.86 6.65771V6.65952Z" fill="#D81D45"/>
</g>
<defs>
<clipPath id="clip0_12_2052">
<rect width="144.004" height="24" fill="white"/>
</clipPath>
</defs>
</svg>
